<svg id="Capa_1" data-name="Capa 1" xmlns="http://www.w3.org/2000/svg" viewBox="0 0 415 399"><defs><style>.cls-1{fill:#ff6d00;}</style></defs><title>Mesa de trabajo 4</title><path class="cls-1" d="M177.8,284.32,203,253.9l-8.25-6.9q-16.26-13.56-32.51-27.15a80.61,80.61,0,0,1-8.17-7.48c-2.39-2.67-4.81-5.43-6.17-8.84-1-2.6-.74-5.3-.18-8,.2-.93.64-1.81.83-2.74.93-4.55,4.51-6.3,8.32-7.48,1.38-.42,3.13.35,4.71.57.86.12,1.73.19,2.57.36a3.54,3.54,0,0,1,1.54.54c3.94,3.1,7.88,6.19,11.75,9.37q18.38,15.1,36.7,30.28l6.77,5.57,25.25-30.45-10.72-8.86c-11.72-9.68-23.52-19.28-35.15-29.08a35.31,35.31,0,0,1-9.12-11.79,9.44,9.44,0,0,1-.65-5.62,53.67,53.67,0,0,1,1.79-6.92,4.1,4.1,0,0,1,2.22-2.59c3-1.45,6-3,9.41-3.24a10.46,10.46,0,0,1,7.19,2.64c7.92,6.34,15.77,12.78,23.6,19.24,9.57,7.91,19.24,15.71,28.59,23.88,3.41,3,6.12,6.77,9,10.32a63.64,63.64,0,0,1,9.85,18,64.76,64.76,0,0,1,3.66,25.67c-.52,11.73-3.95,22.62-9,33.09-5.79,12-13.84,22.3-22.95,31.88a141.5,141.5,0,0,1-30,23.58,113.74,113.74,0,0,1-34.74,13.86,69.47,69.47,0,0,1-19.51,1.12c-5.37-.38-10.52-2.13-15.59-4a221.91,221.91,0,0,1-57.77-32.6,189.13,189.13,0,0,1-35.5-36.22,109.59,109.59,0,0,1-13.15-21.73A81.37,81.37,0,0,1,42,222.94a71.75,71.75,0,0,1,0-23,89.62,89.62,0,0,1,6.49-21.54,69.7,69.7,0,0,1,11.44-18.43c2.28-2.64,4.36-5.44,6.54-8.17.17-.22.38-.42.55-.6-.2,3.05-.49,6.08-.57,9.11-.18,7.1,1.47,13.93,3.8,20.55A72.08,72.08,0,0,0,85,206c4.91,5.37,10.67,9.75,16.2,14.4q17,14.27,34,28.41l41.66,34.76C177.11,283.81,177.39,284,177.8,284.32Z"/><path class="cls-1" d="M169.92,142.53c-1.29-.11-2.54-.3-3.79-.3q-4.74,0-9.5.2c-1.52,0-3,.25-4.55.34a12.85,12.85,0,0,0-6.51,2.42c-8.55,5.74-14.47,13.59-18.45,23a10.44,10.44,0,0,0-.74,3.79c-.1,4.1-.14,8.2,0,12.29.11,3.21.51,6.4.78,9.69-1-.81-2.15-1.64-3.23-2.53q-11.49-9.37-23-18.79a3.33,3.33,0,0,1-.94-1.2,61.21,61.21,0,0,1-4.78-23.36c-.07-13.45,3.64-25.88,9.57-37.82a104.81,104.81,0,0,1,15-22.55c5.51-6.28,11.54-12.11,17.47-18a121.25,121.25,0,0,1,31.39-22.08c5.17-2.61,10.8-4.32,16.3-6.22A76.77,76.77,0,0,1,203.14,38a102.61,102.61,0,0,1,12.5-.72,126.74,126.74,0,0,1,14.67,1.35c14.55,2.09,28.09,7.26,40.92,14.24a138,138,0,0,1,28.48,20c5.36,5,10.88,9.86,15.72,15.32A190.21,190.21,0,0,1,330,107a119.41,119.41,0,0,1,15.44,31.39c2.75,8.75,4.3,17.67,3.27,26.89a13.7,13.7,0,0,1-.54,3.08c-1.51,4.3-3.06,8.59-4.69,12.85-3.54,9.22-9.37,17.15-14.63,25.38a30,30,0,0,1-2.41,2.91c-1.22-.82-1-2.09-1.18-3.2-.74-4.9-1.26-9.84-2.23-14.69a41,41,0,0,0-2.85-8.09,54.4,54.4,0,0,0-9.21-13.87c-1.6-1.83-3.51-3.39-5.29-5.06-5.21-4.89-10.33-9.89-15.66-14.64-4.82-4.29-9.86-8.31-14.82-12.44q-19.89-16.55-39.79-33.1a72.38,72.38,0,0,0-16-10.48A40.31,40.31,0,0,0,203,89.75a23.59,23.59,0,0,0-8.17,1.47,36.51,36.51,0,0,0-13.56,8.1A46.79,46.79,0,0,0,173,110.45c-1.29,2.35-3,4.53-3.48,7.26a9.45,9.45,0,0,0-.22,1.66c0,5.11-.08,10.21,0,15.31C169.32,137.23,169.68,139.78,169.92,142.53Z"/></svg>