<svg id="Capa_1" data-name="Capa 1" xmlns="http://www.w3.org/2000/svg" viewBox="0 0 492 432"><defs><style>.cls-1{fill:#fff;}</style></defs><title>Mesa de trabajo 5</title><path class="cls-1" d="M247.94,55.66l8,.53a155.37,155.37,0,0,1,36.82,7A160.47,160.47,0,0,1,400.35,179.25a154.49,154.49,0,0,1,4.07,43.48c-1.78,37.08-14.69,69.85-39,98a157.85,157.85,0,0,1-71.22,47.4,156.09,156.09,0,0,1-32.5,6.95,158.62,158.62,0,0,1-31.87.26c-36.45-3.46-68.15-17.64-94.85-42.6-24.2-22.61-39.82-50.25-47-82.62A153.86,153.86,0,0,1,84.47,209c2-39.77,16.51-74.35,43.86-103.33a157.06,157.06,0,0,1,77.13-45.14A151.27,151.27,0,0,1,233,56.19l8-.53ZM244.4,367.6a151.72,151.72,0,0,0,1.77-303.43c-85-.89-152.94,67.65-153.45,150.69A151.82,151.82,0,0,0,244.4,367.6Z"/><path class="cls-1" d="M206.43,189.12V142.68c0-1.82,0-1.82,1.83-1.82H272.7c12.31,0,21.64,5.46,28.1,15.71,10.59,16.82,4.71,39.78-12.4,49.15a31.5,31.5,0,0,1-15.24,3.87c-10.87,0-21.74,0-32.61,0h-1.74v1.32c0,5.61,0,11.21.06,16.82a2.42,2.42,0,0,0,.79,1.71q17.88,13.32,35.85,26.57c.24.18.51.31.82.51l11.75-8.47q13.13-9.45,26.26-18.87a2.06,2.06,0,0,0,1-1.91c0-5.69,0-11.39,0-17.08v-1.48h26.2c0,.44.07.86.07,1.27,0,9.58,0,19.15,0,28.73a2.28,2.28,0,0,1-.7,1.6q-32,25-64.12,49.89c-.16.13-.34.25-.56.41L261.87,279c-2.35-1.9-4.71-3.78-7-5.71-.72-.6-1.16-.69-1.91,0-10.18,9.75-22.55,14.83-36.33,16.76-12.72,1.78-25.23.88-37.2-4-17.11-7-27.75-19.69-31.2-37.86-4.06-21.43,6.27-43,26.15-53.44a50.21,50.21,0,0,1,23.75-5.68Zm-.36,23.8c-.41-.06-.7-.14-1-.15-8.82-.06-16.53,2.72-22.65,9.2-6.87,7.29-9,17.85-3.49,27a33.25,33.25,0,0,0,15.56,13.5c6.14,2.73,12.53,4.08,19.23,2.32,6.3-1.66,11.81-4.91,17-8.8.08-.07.09-.22.16-.39-.41-.32-.81-.64-1.22-.94Q218.32,246.4,207,238.14a2,2,0,0,1-.92-1.79c0-7.29,0-14.57,0-21.86Zm32.81-24.67c.42,0,.8.09,1.18.09h22.63a11.94,11.94,0,0,0,9.39-4.44c3.94-4.6,4.93-9.84,2.43-15.39s-6.8-8.36-13-8.3c-7,.06-14,0-21,0h-1.71Z"/></svg>